# Blender 4.4.1
# www.blender.org
mtllib stick.mtl
o Cube
v 0.750000 0.500000 -4.000000
v 0.750000 -0.500000 -4.000000
v 0.750000 0.500000 4.000000
v 0.750000 -0.500000 4.000000
v -0.750000 0.500000 -4.000000
v -0.750000 -0.500000 -4.000000
v -0.750000 0.500000 4.000000
v -0.750000 -0.500000 4.000000
vn -0.0000 1.0000 -0.0000
vn -0.0000 -0.0000 1.0000
vn -1.0000 -0.0000 -0.0000
vn -0.0000 -1.0000 -0.0000
vn 1.0000 -0.0000 -0.0000
vn -0.0000 -0.0000 -1.0000
vt 0.500000 0.100057
vt 0.350021 0.899943
vt 0.350021 0.100057
vt 0.500000 0.999929
vt 0.350021 0.999929
vt 0.000071 0.899943
vt 0.100057 0.100057
vt 0.100057 0.899943
vt 0.250035 0.100057
vt 0.250035 0.899943
vt 0.350021 0.000071
vt 0.500000 0.000071
vt 0.500000 0.899943
vt 0.000071 0.100057
s 0
usemtl Material
f 5/1/1 3/2/1 1/3/1
f 3/2/2 8/4/2 4/5/2
f 7/6/3 6/7/3 8/8/3
f 2/9/4 8/8/4 6/7/4
f 1/3/5 4/10/5 2/9/5
f 5/1/6 2/11/6 6/12/6
f 5/1/1 7/13/1 3/2/1
f 3/2/2 7/13/2 8/4/2
f 7/6/3 5/14/3 6/7/3
f 2/9/4 4/10/4 8/8/4
f 1/3/5 3/2/5 4/10/5
f 5/1/6 1/3/6 2/11/6
