# Blender 4.4.1
# www.blender.org
mtllib stage4.mtl
o 4
v -15.000000 1.671674 2.500000
v -15.487726 1.671674 2.451963
v -15.000000 2.171674 2.500000
v -14.512274 1.671674 2.451963
v -14.043291 1.671674 2.309699
v -14.512274 2.171674 2.451963
v -14.043291 2.171674 2.309699
v -13.611074 2.171674 2.078674
v -13.232233 2.171674 1.767767
v -13.611074 1.671674 2.078674
v -13.232233 1.671674 1.767767
v -12.921326 1.671674 1.388926
v -12.690301 1.671674 0.956709
v -12.921326 2.171674 1.388926
v -12.690301 2.171674 0.956709
v -12.548037 2.171674 0.487726
v -12.500000 2.171674 0.000000
v -12.548037 1.671674 0.487726
v -12.500000 1.671674 0.000000
v -12.548037 1.671674 -0.487726
v -12.690301 1.671674 -0.956709
v -12.548037 2.171674 -0.487726
v -12.690301 2.171674 -0.956709
v -12.921326 2.171674 -1.388926
v -13.232233 2.171674 -1.767767
v -12.921326 1.671674 -1.388926
v -13.232233 1.671674 -1.767767
v -13.611074 1.671674 -2.078674
v -14.043291 1.671674 -2.309699
v -13.611074 2.171674 -2.078674
v -14.043291 2.171674 -2.309699
v -14.512274 2.171674 -2.451963
v -15.000000 2.171674 -2.500000
v -14.512274 1.671674 -2.451963
v -15.000000 1.671674 -2.500000
v -15.487726 1.671674 -2.451963
v -15.956709 1.671674 -2.309699
v -15.487726 2.171674 -2.451963
v -15.956709 2.171674 -2.309699
v -16.388926 2.171674 -2.078674
v -16.767767 2.171674 -1.767767
v -16.388926 1.671674 -2.078674
v -16.767767 1.671674 -1.767767
v -17.078674 1.671674 -1.388926
v -17.309698 1.671674 -0.956709
v -17.078674 2.171674 -1.388926
v -17.309698 2.171674 -0.956709
v -17.451963 2.171674 -0.487726
v -17.500000 2.171674 0.000000
v -17.451963 1.671674 -0.487726
v -17.500000 1.671674 0.000000
v -17.451963 1.671674 0.487726
v -17.309698 1.671674 0.956709
v -17.451963 2.171674 0.487726
v -17.309698 2.171674 0.956709
v -17.078674 2.171674 1.388926
v -16.767767 2.171674 1.767767
v -17.078674 1.671674 1.388926
v -16.767767 1.671674 1.767767
v -16.388926 1.671674 2.078674
v -15.956709 1.671674 2.309699
v -16.388926 2.171674 2.078674
v -15.956709 2.171674 2.309699
v -15.487726 2.171674 2.451963
vn -0.0000 -0.0000 1.0000
vn -0.1951 -0.0000 0.9808
vn 0.1951 -0.0000 0.9808
vn 0.3827 -0.0000 0.9239
vn -0.0000 1.0000 -0.0000
vn 0.5556 -0.0000 0.8315
vn 0.7071 -0.0000 0.7071
vn 0.8315 -0.0000 0.5556
vn 0.9239 -0.0000 0.3827
vn 0.9808 -0.0000 0.1951
vn 1.0000 -0.0000 -0.0000
vn 0.9808 -0.0000 -0.1951
vn 0.9239 -0.0000 -0.3827
vn 0.8315 -0.0000 -0.5556
vn 0.7071 -0.0000 -0.7071
vn 0.5556 -0.0000 -0.8315
vn 0.3827 -0.0000 -0.9239
vn 0.1951 -0.0000 -0.9808
vn -0.0000 -0.0000 -1.0000
vn -0.1951 -0.0000 -0.9808
vn -0.3827 -0.0000 -0.9239
vn -0.5556 -0.0000 -0.8315
vn -0.7071 -0.0000 -0.7071
vn -0.8315 -0.0000 -0.5556
vn -0.9239 -0.0000 -0.3827
vn -0.9808 -0.0000 -0.1951
vn -1.0000 -0.0000 -0.0000
vn -0.9808 -0.0000 0.1951
vn -0.9239 -0.0000 0.3827
vn -0.8315 -0.0000 0.5556
vn -0.7071 -0.0000 0.7071
vn -0.5556 -0.0000 0.8315
vn -0.3827 -0.0000 0.9239
vt 0.496861 0.698927
vt 0.499499 0.699802
vt 0.498641 0.702388
vt 0.496003 0.701513
vt 0.497718 0.696341
vt 0.500356 0.697216
vt 0.498576 0.693756
vt 0.501214 0.694631
vt 0.513222 0.744592
vt 0.512885 0.747296
vt 0.512028 0.749881
vt 0.510682 0.752250
vt 0.508900 0.754311
vt 0.506750 0.755984
vt 0.504315 0.757206
vt 0.501689 0.757929
vt 0.498972 0.758126
vt 0.496269 0.757789
vt 0.493683 0.756932
vt 0.491314 0.755586
vt 0.489254 0.753804
vt 0.487580 0.751654
vt 0.486358 0.749219
vt 0.485635 0.746593
vt 0.485438 0.743876
vt 0.485775 0.741173
vt 0.486633 0.738587
vt 0.487978 0.736218
vt 0.489760 0.734158
vt 0.491910 0.732484
vt 0.494345 0.731263
vt 0.496971 0.730539
vt 0.499688 0.730342
vt 0.502392 0.730679
vt 0.504977 0.731537
vt 0.507346 0.732882
vt 0.509407 0.734664
vt 0.511080 0.736814
vt 0.512302 0.739249
vt 0.513025 0.741875
vt 0.499434 0.691170
vt 0.502072 0.692045
vt 0.500291 0.688584
vt 0.502929 0.689459
vt 0.501149 0.685999
vt 0.503787 0.686874
vt 0.502007 0.683413
vt 0.504645 0.684288
vt 0.502865 0.680827
vt 0.505503 0.681702
vt 0.503722 0.678242
vt 0.506360 0.679117
vt 0.504580 0.675656
vt 0.507218 0.676531
vt 0.505438 0.673070
vt 0.508076 0.673945
vt 0.506296 0.670485
vt 0.508933 0.671360
vt 0.507153 0.667899
vt 0.509791 0.668774
vt 0.508011 0.665313
vt 0.510649 0.666188
vt 0.508869 0.662728
vt 0.511507 0.663603
vt 0.509726 0.660142
vt 0.512364 0.661017
vt 0.510584 0.657556
vt 0.513222 0.658431
vt 0.483995 0.737712
vt 0.483137 0.740298
vt 0.484852 0.735126
vt 0.487490 0.736001
vt 0.485710 0.732541
vt 0.488348 0.733416
vt 0.486568 0.729955
vt 0.489206 0.730830
vt 0.487426 0.727369
vt 0.490064 0.728244
vt 0.488283 0.724784
vt 0.490921 0.725659
vt 0.489141 0.722198
vt 0.491779 0.723073
vt 0.489999 0.719612
vt 0.492637 0.720487
vt 0.490856 0.717027
vt 0.493494 0.717902
vt 0.491714 0.714441
vt 0.494352 0.715316
vt 0.492572 0.711855
vt 0.495210 0.712730
vt 0.493430 0.709270
vt 0.496068 0.710145
vt 0.494287 0.706684
vt 0.496925 0.707559
vt 0.495145 0.704098
vt 0.497783 0.704973
s 1
usemtl マテリアル.1
f 1/1/1 3/2/1 64/3/2 2/4/2
f 4/5/3 6/6/3 3/2/1 1/1/1
f 5/7/4 7/8/4 6/6/3 4/5/3
s 0
f 64/9/5 3/10/5 6/11/5 7/12/5 8/13/5 9/14/5 14/15/5 15/16/5 16/17/5 17/18/5 22/19/5 23/20/5 24/21/5 25/22/5 30/23/5 31/24/5 32/25/5 33/26/5 38/27/5 39/28/5 40/29/5 41/30/5 46/31/5 47/32/5 48/33/5 49/34/5 54/35/5 55/36/5 56/37/5 57/38/5 62/39/5 63/40/5
s 1
f 10/41/6 8/42/6 7/8/4 5/7/4
f 11/43/7 9/44/7 8/42/6 10/41/6
f 12/45/8 14/46/8 9/44/7 11/43/7
f 13/47/9 15/48/9 14/46/8 12/45/8
f 18/49/10 16/50/10 15/48/9 13/47/9
f 19/51/11 17/52/11 16/50/10 18/49/10
f 20/53/12 22/54/12 17/52/11 19/51/11
f 21/55/13 23/56/13 22/54/12 20/53/12
f 26/57/14 24/58/14 23/56/13 21/55/13
f 27/59/15 25/60/15 24/58/14 26/57/14
f 28/61/16 30/62/16 25/60/15 27/59/15
f 29/63/17 31/64/17 30/62/16 28/61/16
f 34/65/18 32/66/18 31/64/17 29/63/17
f 35/67/19 33/68/19 32/66/18 34/65/18
f 36/69/20 38/27/20 33/26/19 35/70/19
f 37/71/21 39/72/21 38/27/20 36/69/20
f 42/73/22 40/74/22 39/72/21 37/71/21
f 43/75/23 41/76/23 40/74/22 42/73/22
f 44/77/24 46/78/24 41/76/23 43/75/23
f 45/79/25 47/80/25 46/78/24 44/77/24
f 50/81/26 48/82/26 47/80/25 45/79/25
f 51/83/27 49/84/27 48/82/26 50/81/26
f 52/85/28 54/86/28 49/84/27 51/83/27
f 53/87/29 55/88/29 54/86/28 52/85/28
f 58/89/30 56/90/30 55/88/29 53/87/29
f 59/91/31 57/92/31 56/90/30 58/89/30
f 60/93/32 62/94/32 57/92/31 59/91/31
f 61/95/33 63/96/33 62/94/32 60/93/32
f 2/4/2 64/3/2 63/96/33 61/95/33
