# Blender 4.4.1
# www.blender.org
mtllib stage3.mtl
o 3
v 0.000000 1.671674 2.500000
v -0.487726 1.671674 2.451963
v 0.000000 2.171674 2.500000
v 0.487726 1.671674 2.451963
v 0.956709 1.671674 2.309699
v 0.487726 2.171674 2.451963
v 0.956709 2.171674 2.309699
v 1.388926 2.171674 2.078674
v 1.767767 2.171674 1.767767
v 1.388926 1.671674 2.078674
v 1.767767 1.671674 1.767767
v 2.078674 1.671674 1.388926
v 2.309699 1.671674 0.956709
v 2.078674 2.171674 1.388926
v 2.309699 2.171674 0.956709
v 2.451963 2.171674 0.487726
v 2.500000 2.171674 0.000000
v 2.451963 1.671674 0.487726
v 2.500000 1.671674 0.000000
v 2.451963 1.671674 -0.487726
v 2.309699 1.671674 -0.956709
v 2.451963 2.171674 -0.487726
v 2.309699 2.171674 -0.956709
v 2.078674 2.171674 -1.388926
v 1.767767 2.171674 -1.767767
v 2.078674 1.671674 -1.388926
v 1.767767 1.671674 -1.767767
v 1.388926 1.671674 -2.078674
v 0.956709 1.671674 -2.309699
v 1.388926 2.171674 -2.078674
v 0.956709 2.171674 -2.309699
v 0.487726 2.171674 -2.451963
v 0.000000 2.171674 -2.500000
v 0.487726 1.671674 -2.451963
v 0.000000 1.671674 -2.500000
v -0.487726 1.671674 -2.451963
v -0.956709 1.671674 -2.309699
v -0.487726 2.171674 -2.451963
v -0.956709 2.171674 -2.309699
v -1.388926 2.171674 -2.078674
v -1.767767 2.171674 -1.767767
v -1.388926 1.671674 -2.078674
v -1.767767 1.671674 -1.767767
v -2.078674 1.671674 -1.388926
v -2.309699 1.671674 -0.956709
v -2.078674 2.171674 -1.388926
v -2.309699 2.171674 -0.956709
v -2.451963 2.171674 -0.487726
v -2.500000 2.171674 0.000000
v -2.451963 1.671674 -0.487726
v -2.500000 1.671674 0.000000
v -2.451963 1.671674 0.487726
v -2.309699 1.671674 0.956709
v -2.451963 2.171674 0.487726
v -2.309699 2.171674 0.956709
v -2.078674 2.171674 1.388926
v -1.767767 2.171674 1.767767
v -2.078674 1.671674 1.388926
v -1.767767 1.671674 1.767767
v -1.388926 1.671674 2.078674
v -0.956709 1.671674 2.309699
v -1.388926 2.171674 2.078674
v -0.956709 2.171674 2.309699
v -0.487726 2.171674 2.451963
vn -0.0000 -0.0000 1.0000
vn -0.1951 -0.0000 0.9808
vn 0.1951 -0.0000 0.9808
vn 0.3827 -0.0000 0.9239
vn -0.0000 1.0000 -0.0000
vn 0.5556 -0.0000 0.8315
vn 0.7071 -0.0000 0.7071
vn 0.8315 -0.0000 0.5556
vn 0.9239 -0.0000 0.3827
vn 0.9808 -0.0000 0.1951
vn 1.0000 -0.0000 -0.0000
vn 0.9808 -0.0000 -0.1951
vn 0.9239 -0.0000 -0.3827
vn 0.8315 -0.0000 -0.5556
vn 0.7071 -0.0000 -0.7071
vn 0.5556 -0.0000 -0.8315
vn 0.3827 -0.0000 -0.9239
vn 0.1951 -0.0000 -0.9808
vn -0.0000 -0.0000 -1.0000
vn -0.1951 -0.0000 -0.9808
vn -0.3827 -0.0000 -0.9239
vn -0.5556 -0.0000 -0.8315
vn -0.7071 -0.0000 -0.7071
vn -0.8315 -0.0000 -0.5556
vn -0.9239 -0.0000 -0.3827
vn -0.9808 -0.0000 -0.1951
vn -1.0000 -0.0000 -0.0000
vn -0.9808 -0.0000 0.1951
vn -0.9239 -0.0000 0.3827
vn -0.8315 -0.0000 0.5556
vn -0.7071 -0.0000 0.7071
vn -0.5556 -0.0000 0.8315
vn -0.3827 -0.0000 0.9239
vt 0.496861 0.542596
vt 0.499499 0.543471
vt 0.498641 0.546057
vt 0.496003 0.545181
vt 0.497718 0.540010
vt 0.500356 0.540885
vt 0.498576 0.537424
vt 0.501214 0.538300
vt 0.513222 0.588261
vt 0.512885 0.590964
vt 0.512028 0.593550
vt 0.510682 0.595919
vt 0.508900 0.597979
vt 0.506750 0.599653
vt 0.504315 0.600875
vt 0.501689 0.601598
vt 0.498972 0.601795
vt 0.496269 0.601458
vt 0.493683 0.600600
vt 0.491314 0.599255
vt 0.489254 0.597473
vt 0.487580 0.595323
vt 0.486359 0.592888
vt 0.485635 0.590262
vt 0.485438 0.587545
vt 0.485775 0.584841
vt 0.486633 0.582256
vt 0.487978 0.579887
vt 0.489760 0.577827
vt 0.491910 0.576153
vt 0.494345 0.574931
vt 0.496971 0.574208
vt 0.499688 0.574011
vt 0.502392 0.574348
vt 0.504977 0.575206
vt 0.507346 0.576551
vt 0.509407 0.578333
vt 0.511080 0.580483
vt 0.512302 0.582918
vt 0.513025 0.585544
vt 0.499434 0.534839
vt 0.502072 0.535714
vt 0.500292 0.532253
vt 0.502929 0.533128
vt 0.501149 0.529667
vt 0.503787 0.530542
vt 0.502007 0.527082
vt 0.504645 0.527957
vt 0.502865 0.524496
vt 0.505503 0.525371
vt 0.503722 0.521910
vt 0.506360 0.522786
vt 0.504580 0.519325
vt 0.507218 0.520200
vt 0.505438 0.516739
vt 0.508076 0.517614
vt 0.506296 0.514153
vt 0.508934 0.515029
vt 0.507153 0.511568
vt 0.509791 0.512443
vt 0.508011 0.508982
vt 0.510649 0.509857
vt 0.508869 0.506396
vt 0.511507 0.507272
vt 0.509727 0.503811
vt 0.512364 0.504686
vt 0.510584 0.501225
vt 0.513222 0.502100
vt 0.483995 0.581381
vt 0.483137 0.583966
vt 0.484852 0.578795
vt 0.487490 0.579670
vt 0.485710 0.576209
vt 0.488348 0.577084
vt 0.486568 0.573624
vt 0.489206 0.574499
vt 0.487426 0.571038
vt 0.490064 0.571913
vt 0.488283 0.568452
vt 0.490921 0.569328
vt 0.489141 0.565867
vt 0.491779 0.566742
vt 0.489999 0.563281
vt 0.492637 0.564156
vt 0.490856 0.560695
vt 0.493494 0.561571
vt 0.491714 0.558110
vt 0.494352 0.558985
vt 0.492572 0.555524
vt 0.495210 0.556399
vt 0.493430 0.552938
vt 0.496068 0.553814
vt 0.494287 0.550353
vt 0.496925 0.551228
vt 0.495145 0.547767
vt 0.497783 0.548642
s 1
usemtl マテリアル.1
f 1/1/1 3/2/1 64/3/2 2/4/2
f 4/5/3 6/6/3 3/2/1 1/1/1
f 5/7/4 7/8/4 6/6/3 4/5/3
s 0
f 64/9/5 3/10/5 6/11/5 7/12/5 8/13/5 9/14/5 14/15/5 15/16/5 16/17/5 17/18/5 22/19/5 23/20/5 24/21/5 25/22/5 30/23/5 31/24/5 32/25/5 33/26/5 38/27/5 39/28/5 40/29/5 41/30/5 46/31/5 47/32/5 48/33/5 49/34/5 54/35/5 55/36/5 56/37/5 57/38/5 62/39/5 63/40/5
s 1
f 10/41/6 8/42/6 7/8/4 5/7/4
f 11/43/7 9/44/7 8/42/6 10/41/6
f 12/45/8 14/46/8 9/44/7 11/43/7
f 13/47/9 15/48/9 14/46/8 12/45/8
f 18/49/10 16/50/10 15/48/9 13/47/9
f 19/51/11 17/52/11 16/50/10 18/49/10
f 20/53/12 22/54/12 17/52/11 19/51/11
f 21/55/13 23/56/13 22/54/12 20/53/12
f 26/57/14 24/58/14 23/56/13 21/55/13
f 27/59/15 25/60/15 24/58/14 26/57/14
f 28/61/16 30/62/16 25/60/15 27/59/15
f 29/63/17 31/64/17 30/62/16 28/61/16
f 34/65/18 32/66/18 31/64/17 29/63/17
f 35/67/19 33/68/19 32/66/18 34/65/18
f 36/69/20 38/27/20 33/26/19 35/70/19
f 37/71/21 39/72/21 38/27/20 36/69/20
f 42/73/22 40/74/22 39/72/21 37/71/21
f 43/75/23 41/76/23 40/74/22 42/73/22
f 44/77/24 46/78/24 41/76/23 43/75/23
f 45/79/25 47/80/25 46/78/24 44/77/24
f 50/81/26 48/82/26 47/80/25 45/79/25
f 51/83/27 49/84/27 48/82/26 50/81/26
f 52/85/28 54/86/28 49/84/27 51/83/27
f 53/87/29 55/88/29 54/86/28 52/85/28
f 58/89/30 56/90/30 55/88/29 53/87/29
f 59/91/31 57/92/31 56/90/30 58/89/30
f 60/93/32 62/94/32 57/92/31 59/91/31
f 61/95/33 63/96/33 62/94/32 60/93/32
f 2/4/2 64/3/2 63/96/33 61/95/33
