# Blender 4.4.1
# www.blender.org
mtllib stage1.mtl
o 1
v 30.000000 1.671674 2.500000
v 29.512274 1.671674 2.451963
v 30.000000 2.171674 2.500000
v 30.487726 1.671674 2.451963
v 30.956709 1.671674 2.309699
v 30.487726 2.171674 2.451963
v 30.956709 2.171674 2.309699
v 31.388926 2.171674 2.078674
v 31.767767 2.171674 1.767767
v 31.388926 1.671674 2.078674
v 31.767767 1.671674 1.767767
v 32.078674 1.671674 1.388926
v 32.309700 1.671674 0.956709
v 32.078674 2.171674 1.388926
v 32.309700 2.171674 0.956709
v 32.451962 2.171674 0.487726
v 32.500000 2.171674 0.000000
v 32.451962 1.671674 0.487726
v 32.500000 1.671674 0.000000
v 32.451962 1.671674 -0.487726
v 32.309700 1.671674 -0.956709
v 32.451962 2.171674 -0.487726
v 32.309700 2.171674 -0.956709
v 32.078674 2.171674 -1.388926
v 31.767767 2.171674 -1.767767
v 32.078674 1.671674 -1.388926
v 31.767767 1.671674 -1.767767
v 31.388926 1.671674 -2.078674
v 30.956709 1.671674 -2.309699
v 31.388926 2.171674 -2.078674
v 30.956709 2.171674 -2.309699
v 30.487726 2.171674 -2.451963
v 30.000000 2.171674 -2.500000
v 30.487726 1.671674 -2.451963
v 30.000000 1.671674 -2.500000
v 29.512274 1.671674 -2.451963
v 29.043291 1.671674 -2.309699
v 29.512274 2.171674 -2.451963
v 29.043291 2.171674 -2.309699
v 28.611074 2.171674 -2.078674
v 28.232233 2.171674 -1.767767
v 28.611074 1.671674 -2.078674
v 28.232233 1.671674 -1.767767
v 27.921326 1.671674 -1.388926
v 27.690302 1.671674 -0.956709
v 27.921326 2.171674 -1.388926
v 27.690302 2.171674 -0.956709
v 27.548037 2.171674 -0.487726
v 27.500000 2.171674 0.000000
v 27.548037 1.671674 -0.487726
v 27.500000 1.671674 0.000000
v 27.548037 1.671674 0.487726
v 27.690302 1.671674 0.956709
v 27.548037 2.171674 0.487726
v 27.690302 2.171674 0.956709
v 27.921326 2.171674 1.388926
v 28.232233 2.171674 1.767767
v 27.921326 1.671674 1.388926
v 28.232233 1.671674 1.767767
v 28.611074 1.671674 2.078674
v 29.043291 1.671674 2.309699
v 28.611074 2.171674 2.078674
v 29.043291 2.171674 2.309699
v 29.512274 2.171674 2.451963
vn -0.0000 -0.0000 1.0000
vn -0.1951 -0.0000 0.9808
vn 0.1951 -0.0000 0.9808
vn 0.3827 -0.0000 0.9239
vn -0.0000 1.0000 -0.0000
vn 0.5556 -0.0000 0.8315
vn 0.7071 -0.0000 0.7071
vn 0.8315 -0.0000 0.5556
vn 0.9239 -0.0000 0.3827
vn 0.9808 -0.0000 0.1951
vn 1.0000 -0.0000 -0.0000
vn 0.9808 -0.0000 -0.1951
vn 0.9239 -0.0000 -0.3827
vn 0.8315 -0.0000 -0.5556
vn 0.7071 -0.0000 -0.7071
vn 0.5556 -0.0000 -0.8315
vn 0.3827 -0.0000 -0.9239
vn 0.1951 -0.0000 -0.9808
vn -0.0000 -0.0000 -1.0000
vn -0.1951 -0.0000 -0.9808
vn -0.3827 -0.0000 -0.9239
vn -0.5556 -0.0000 -0.8315
vn -0.7071 -0.0000 -0.7071
vn -0.8315 -0.0000 -0.5556
vn -0.9239 -0.0000 -0.3827
vn -0.9808 -0.0000 -0.1951
vn -1.0000 -0.0000 -0.0000
vn -0.9808 -0.0000 0.1951
vn -0.9239 -0.0000 0.3827
vn -0.8315 -0.0000 0.5556
vn -0.7071 -0.0000 0.7071
vn -0.5556 -0.0000 0.8315
vn -0.3827 -0.0000 0.9239
vt 0.722558 0.496094
vt 0.725196 0.496969
vt 0.724338 0.499554
vt 0.721700 0.498679
vt 0.723416 0.493508
vt 0.726054 0.494383
vt 0.724273 0.490922
vt 0.726911 0.491797
vt 0.738920 0.541759
vt 0.738583 0.544462
vt 0.737725 0.547048
vt 0.736379 0.549417
vt 0.734597 0.551477
vt 0.732448 0.553151
vt 0.730013 0.554372
vt 0.727386 0.555096
vt 0.724669 0.555293
vt 0.721966 0.554956
vt 0.719380 0.554098
vt 0.717012 0.552753
vt 0.714951 0.550971
vt 0.713278 0.548821
vt 0.712056 0.546386
vt 0.711333 0.543760
vt 0.711136 0.541043
vt 0.711472 0.538339
vt 0.712330 0.535754
vt 0.713676 0.533385
vt 0.715458 0.531324
vt 0.717607 0.529651
vt 0.720042 0.528429
vt 0.722669 0.527706
vt 0.725386 0.527509
vt 0.728089 0.527846
vt 0.730675 0.528703
vt 0.733043 0.530049
vt 0.735104 0.531831
vt 0.736777 0.533981
vt 0.737999 0.536416
vt 0.738723 0.539042
vt 0.725131 0.488337
vt 0.727769 0.489212
vt 0.725989 0.485751
vt 0.728627 0.486626
vt 0.726847 0.483165
vt 0.729485 0.484040
vt 0.727704 0.480580
vt 0.730342 0.481455
vt 0.728562 0.477994
vt 0.731200 0.478869
vt 0.729420 0.475408
vt 0.732058 0.476283
vt 0.730278 0.472823
vt 0.732916 0.473698
vt 0.731135 0.470237
vt 0.733773 0.471112
vt 0.731993 0.467651
vt 0.734631 0.468526
vt 0.732851 0.465066
vt 0.735489 0.465941
vt 0.733708 0.462480
vt 0.736346 0.463355
vt 0.734566 0.459894
vt 0.737204 0.460769
vt 0.735424 0.457309
vt 0.738062 0.458184
vt 0.736282 0.454723
vt 0.738920 0.455598
vt 0.709692 0.534879
vt 0.708834 0.537464
vt 0.710550 0.532293
vt 0.713188 0.533168
vt 0.711408 0.529707
vt 0.714046 0.530582
vt 0.712265 0.527122
vt 0.714903 0.527997
vt 0.713123 0.524536
vt 0.715761 0.525411
vt 0.713981 0.521950
vt 0.716619 0.522825
vt 0.714838 0.519365
vt 0.717476 0.520240
vt 0.715696 0.516779
vt 0.718334 0.517654
vt 0.716554 0.514193
vt 0.719192 0.515068
vt 0.717412 0.511608
vt 0.720050 0.512483
vt 0.718269 0.509022
vt 0.720907 0.509897
vt 0.719127 0.506436
vt 0.721765 0.507311
vt 0.719985 0.503851
vt 0.722623 0.504726
vt 0.720843 0.501265
vt 0.723481 0.502140
s 1
usemtl マテリアル.1
f 1/1/1 3/2/1 64/3/2 2/4/2
f 4/5/3 6/6/3 3/2/1 1/1/1
f 5/7/4 7/8/4 6/6/3 4/5/3
s 0
f 64/9/5 3/10/5 6/11/5 7/12/5 8/13/5 9/14/5 14/15/5 15/16/5 16/17/5 17/18/5 22/19/5 23/20/5 24/21/5 25/22/5 30/23/5 31/24/5 32/25/5 33/26/5 38/27/5 39/28/5 40/29/5 41/30/5 46/31/5 47/32/5 48/33/5 49/34/5 54/35/5 55/36/5 56/37/5 57/38/5 62/39/5 63/40/5
s 1
f 10/41/6 8/42/6 7/8/4 5/7/4
f 11/43/7 9/44/7 8/42/6 10/41/6
f 12/45/8 14/46/8 9/44/7 11/43/7
f 13/47/9 15/48/9 14/46/8 12/45/8
f 18/49/10 16/50/10 15/48/9 13/47/9
f 19/51/11 17/52/11 16/50/10 18/49/10
f 20/53/12 22/54/12 17/52/11 19/51/11
f 21/55/13 23/56/13 22/54/12 20/53/12
f 26/57/14 24/58/14 23/56/13 21/55/13
f 27/59/15 25/60/15 24/58/14 26/57/14
f 28/61/16 30/62/16 25/60/15 27/59/15
f 29/63/17 31/64/17 30/62/16 28/61/16
f 34/65/18 32/66/18 31/64/17 29/63/17
f 35/67/19 33/68/19 32/66/18 34/65/18
f 36/69/20 38/27/20 33/26/19 35/70/19
f 37/71/21 39/72/21 38/27/20 36/69/20
f 42/73/22 40/74/22 39/72/21 37/71/21
f 43/75/23 41/76/23 40/74/22 42/73/22
f 44/77/24 46/78/24 41/76/23 43/75/23
f 45/79/25 47/80/25 46/78/24 44/77/24
f 50/81/26 48/82/26 47/80/25 45/79/25
f 51/83/27 49/84/27 48/82/26 50/81/26
f 52/85/28 54/86/28 49/84/27 51/83/27
f 53/87/29 55/88/29 54/86/28 52/85/28
f 58/89/30 56/90/30 55/88/29 53/87/29
f 59/91/31 57/92/31 56/90/30 58/89/30
f 60/93/32 62/94/32 57/92/31 59/91/31
f 61/95/33 63/96/33 62/94/32 60/93/32
f 2/4/2 64/3/2 63/96/33 61/95/33
