# Blender 4.4.1
# www.blender.org
mtllib swich.mtl
o 立方体
v -0.500000 -0.300023 0.500000
v -0.500000 -0.500023 0.500000
v -0.500000 -0.300023 -0.500000
v -0.500000 -0.500023 -0.500000
v 0.500000 -0.300023 0.500000
v 0.500000 -0.500023 0.500000
v 0.500000 -0.300023 -0.500000
v 0.500000 -0.500023 -0.500000
vn 1.0000 -0.0000 -0.0000
vn -0.0000 -0.0000 1.0000
vn -1.0000 -0.0000 -0.0000
vn -0.0000 -0.0000 -1.0000
vn -0.0000 -1.0000 -0.0000
vn -0.0000 1.0000 -0.0000
vt 0.083397 0.999924
vt 0.083397 0.916603
vt 0.500000 0.916603
vt 0.500000 0.999924
vt 0.583321 0.916603
vt 0.500000 0.500000
vt 0.583321 0.500000
vt 0.500000 0.416679
vt 0.083397 0.500000
vt 0.083397 0.416679
vt 0.000076 0.500000
vt 0.000076 0.916603
vt 0.500000 0.000076
vt 0.083397 0.000076
s 0
usemtl マテリアル
f 1/1/1 2/2/1 4/3/1 3/4/1
f 3/5/2 4/3/2 8/6/2 7/7/2
f 7/8/3 8/6/3 6/9/3 5/10/3
f 5/11/4 6/9/4 2/2/4 1/12/4
f 3/13/5 7/8/5 5/10/5 1/14/5
f 8/6/6 4/3/6 2/2/6 6/9/6
