# Blender 4.4.1
# www.blender.org
mtllib switch.mtl
o 立方体
v -0.500000 -0.300023 0.500000
v -0.500000 -0.500023 0.500000
v -0.500000 -0.300023 -0.500000
v -0.500000 -0.500023 -0.500000
v 0.500000 -0.300023 0.500000
v 0.500000 -0.500023 0.500000
v 0.500000 -0.300023 -0.500000
v 0.500000 -0.500023 -0.500000
vn 1.0000 -0.0000 -0.0000
vn -0.0000 -0.0000 1.0000
vn -1.0000 -0.0000 -0.0000
vn -0.0000 -0.0000 -1.0000
vn -0.0000 -1.0000 -0.0000
vn -0.0000 1.0000 -0.0000
vt 0.083397 0.916603
vt 0.500000 0.999924
vt 0.083397 0.999924
vt 0.500000 0.916603
vt 0.583321 0.500000
vt 0.583321 0.916603
vt 0.500000 0.500000
vt 0.083397 0.416679
vt 0.500000 0.416679
vt 0.083397 0.500000
vt 0.000076 0.916603
vt 0.000076 0.500000
vt 0.083397 0.000076
vt 0.500000 0.000076
s 0
usemtl マテリアル
f 2/1/1 3/2/1 1/3/1
f 4/4/2 7/5/2 3/6/2
f 8/7/3 5/8/3 7/9/3
f 6/10/4 1/11/4 5/12/4
f 7/9/5 1/13/5 3/14/5
f 4/4/6 6/10/6 8/7/6
f 2/1/1 4/4/1 3/2/1
f 4/4/2 8/7/2 7/5/2
f 8/7/3 6/10/3 5/8/3
f 6/10/4 2/1/4 1/11/4
f 7/9/5 5/8/5 1/13/5
f 4/4/6 2/1/6 6/10/6
