# Blender 4.4.1
# www.blender.org
mtllib player_body.mtl
o Cube
v 0.500000 0.500000 -0.500000
v 0.500000 -0.500000 -0.500000
v 0.500000 0.500000 0.500000
v 0.500000 -0.500000 0.500000
v -0.500000 0.500000 -0.500000
v -0.500000 -0.500000 -0.500000
v -0.500000 0.500000 0.500000
v -0.500000 -0.500000 0.500000
v 0.248434 0.249848 0.490209
v 0.248434 -0.000152 0.490209
v 0.248434 0.249848 0.510209
v 0.248434 -0.000152 0.510209
v 0.188434 0.249848 0.490209
v 0.188434 -0.000152 0.490209
v 0.188434 0.249848 0.510209
v 0.188434 -0.000152 0.510209
v -0.188434 0.249848 0.490209
v -0.188434 -0.000152 0.490209
v -0.188434 0.249848 0.510209
v -0.188434 -0.000152 0.510209
v -0.248434 0.249848 0.490209
v -0.248434 -0.000152 0.490209
v -0.248434 0.249848 0.510209
v -0.248434 -0.000152 0.510209
vn -0.0000 1.0000 -0.0000
vn -0.0000 -0.0000 1.0000
vn -1.0000 -0.0000 -0.0000
vn -0.0000 -1.0000 -0.0000
vn 1.0000 -0.0000 -0.0000
vn -0.0000 -0.0000 -1.0000
vt 0.751627 0.352504
vt 0.640448 0.463682
vt 0.640448 0.352504
vt 0.640448 0.018969
vt 0.751627 0.130147
vt 0.640448 0.130147
vt 0.862805 0.352504
vt 0.751627 0.241326
vt 0.862805 0.241326
vt 0.640448 0.241326
vt 0.529270 0.241326
vt 0.537287 0.617869
vt 0.561339 0.609852
vt 0.561339 0.617869
vt 0.537287 0.509637
vt 0.561339 0.509637
vt 0.537287 0.609852
vt 0.529270 0.509637
vt 0.561339 0.501620
vt 0.537287 0.501620
vt 0.569356 0.609852
vt 0.569356 0.509637
vt 0.615311 0.617869
vt 0.639362 0.609852
vt 0.639362 0.617869
vt 0.615311 0.509637
vt 0.639362 0.509637
vt 0.615311 0.609852
vt 0.607294 0.509637
vt 0.639362 0.501620
vt 0.615311 0.501620
vt 0.647379 0.609852
vt 0.647379 0.509637
vt 0.751627 0.463682
vt 0.751627 0.018969
vt 0.529270 0.352504
vt 0.529270 0.609852
vt 0.607294 0.609852
s 0
usemtl マテリアル
f 5/1/1 3/2/1 1/3/1
f 3/4/2 8/5/2 4/6/2
f 7/7/3 6/8/3 8/9/3
f 2/10/4 8/5/4 6/8/4
f 1/3/5 4/11/5 2/10/5
f 5/1/6 2/10/6 6/8/6
f 13/12/1 11/13/1 9/14/1
f 11/13/2 16/15/2 12/16/2
f 15/17/3 14/18/3 16/15/3
f 10/19/4 16/15/4 14/20/4
f 9/21/5 12/16/5 10/22/5
f 21/23/1 19/24/1 17/25/1
f 19/24/2 24/26/2 20/27/2
f 23/28/3 22/29/3 24/26/3
f 18/30/4 24/26/4 22/31/4
f 17/32/5 20/27/5 18/33/5
f 5/1/1 7/34/1 3/2/1
f 3/4/2 7/35/2 8/5/2
f 7/7/3 5/1/3 6/8/3
f 2/10/4 4/6/4 8/5/4
f 1/3/5 3/36/5 4/11/5
f 5/1/6 1/3/6 2/10/6
f 13/12/1 15/17/1 11/13/1
f 11/13/2 15/17/2 16/15/2
f 15/17/3 13/37/3 14/18/3
f 10/19/4 12/16/4 16/15/4
f 9/21/5 11/13/5 12/16/5
f 21/23/1 23/28/1 19/24/1
f 19/24/2 23/28/2 24/26/2
f 23/28/3 21/38/3 22/29/3
f 18/30/4 20/27/4 24/26/4
f 17/32/5 19/24/5 20/27/5
