# Blender 4.4.1
# www.blender.org
mtllib pin.mtl
o 立方体
v -0.399290 0.000000 0.010000
v -0.399290 0.000000 -0.010000
v 0.200710 -0.300000 0.010000
v 0.200710 0.300000 0.010000
v 0.200710 -0.300000 -0.010000
v 0.200710 0.300000 -0.010000
vn -0.0000 -0.0000 -1.0000
vn 1.0000 -0.0000 -0.0000
vn -0.0000 -0.0000 1.0000
vn -0.4472 -0.8944 -0.0000
vn -0.4472 0.8944 -0.0000
vt 0.000079 0.307093
vt 0.401965 0.343331
vt 0.212220 0.650344
vt 0.222454 0.656669
vt 0.412199 0.349656
vt 0.624340 0.692907
vt 0.010313 0.999921
vt 0.000079 0.993596
vt 0.614106 0.000079
vt 0.624340 0.006404
s 0
usemtl マテリアル.002
f 2/1/1 6/2/1 5/3/1
f 6/2/2 3/4/2 5/3/2
f 3/4/3 4/5/3 1/6/3
f 5/3/4 1/7/4 2/8/4
f 2/9/5 4/5/5 6/2/5
f 6/2/2 4/5/2 3/4/2
f 5/3/4 3/4/4 1/7/4
f 2/9/5 1/10/5 4/5/5
